<svg xmlns="http://www.w3.org/2000/svg" version="1.1" xmlns:xlink="http://www.w3.org/1999/xlink" xmlns:svgjs="http://svgjs.dev/svgjs" viewBox="0 0 2400 800"><g fill="#7b6ada" transform="matrix(1,0,0,1,8.7225341796875,224.85181367397308)"><path d="M-10,10C42.08333333333333,16.458333333333336,137.91666666666666,46.208333333333336,240,41C342.08333333333337,35.791666666666664,380,-15.416666666666666,480,-15C580,-14.583333333333334,620,40.5,720,43C820,45.5,860,-1.9583333333333333,960,-3C1060,-4.041666666666667,1100,40.708333333333336,1200,38C1300,35.291666666666664,1340,-16,1440,-16C1540,-16,1580,35.291666666666664,1680,38C1780,40.708333333333336,1820,-1.9583333333333333,1920,-3C2020,-4.041666666666667,2060,36.333333333333336,2160,33C2260,29.666666666666668,2297.9166666666665,-95.45833333333333,2400,-19C2502.0833333333335,57.45833333333333,3254.1666666666665,208.54166666666669,2650,400C2045.8333333333335,591.4583333333333,156.25,795.8333333333334,-500,900" transform="matrix(1,0,0,1,0,42)" opacity="0.05"></path><path d="M-10,10C42.08333333333333,16.458333333333336,137.91666666666666,46.208333333333336,240,41C342.08333333333337,35.791666666666664,380,-15.416666666666666,480,-15C580,-14.583333333333334,620,40.5,720,43C820,45.5,860,-1.9583333333333333,960,-3C1060,-4.041666666666667,1100,40.708333333333336,1200,38C1300,35.291666666666664,1340,-16,1440,-16C1540,-16,1580,35.291666666666664,1680,38C1780,40.708333333333336,1820,-1.9583333333333333,1920,-3C2020,-4.041666666666667,2060,36.333333333333336,2160,33C2260,29.666666666666668,2297.9166666666665,-95.45833333333333,2400,-19C2502.0833333333335,57.45833333333333,3254.1666666666665,208.54166666666669,2650,400C2045.8333333333335,591.4583333333333,156.25,795.8333333333334,-500,900" transform="matrix(1,0,0,1,0,84)" opacity="0.24"></path><path d="M-10,10C42.08333333333333,16.458333333333336,137.91666666666666,46.208333333333336,240,41C342.08333333333337,35.791666666666664,380,-15.416666666666666,480,-15C580,-14.583333333333334,620,40.5,720,43C820,45.5,860,-1.9583333333333333,960,-3C1060,-4.041666666666667,1100,40.708333333333336,1200,38C1300,35.291666666666664,1340,-16,1440,-16C1540,-16,1580,35.291666666666664,1680,38C1780,40.708333333333336,1820,-1.9583333333333333,1920,-3C2020,-4.041666666666667,2060,36.333333333333336,2160,33C2260,29.666666666666668,2297.9166666666665,-95.45833333333333,2400,-19C2502.0833333333335,57.45833333333333,3254.1666666666665,208.54166666666669,2650,400C2045.8333333333335,591.4583333333333,156.25,795.8333333333334,-500,900" transform="matrix(1,0,0,1,0,126)" opacity="0.43"></path><path d="M-10,10C42.08333333333333,16.458333333333336,137.91666666666666,46.208333333333336,240,41C342.08333333333337,35.791666666666664,380,-15.416666666666666,480,-15C580,-14.583333333333334,620,40.5,720,43C820,45.5,860,-1.9583333333333333,960,-3C1060,-4.041666666666667,1100,40.708333333333336,1200,38C1300,35.291666666666664,1340,-16,1440,-16C1540,-16,1580,35.291666666666664,1680,38C1780,40.708333333333336,1820,-1.9583333333333333,1920,-3C2020,-4.041666666666667,2060,36.333333333333336,2160,33C2260,29.666666666666668,2297.9166666666665,-95.45833333333333,2400,-19C2502.0833333333335,57.45833333333333,3254.1666666666665,208.54166666666669,2650,400C2045.8333333333335,591.4583333333333,156.25,795.8333333333334,-500,900" transform="matrix(1,0,0,1,0,168)" opacity="0.62"></path><path d="M-10,10C42.08333333333333,16.458333333333336,137.91666666666666,46.208333333333336,240,41C342.08333333333337,35.791666666666664,380,-15.416666666666666,480,-15C580,-14.583333333333334,620,40.5,720,43C820,45.5,860,-1.9583333333333333,960,-3C1060,-4.041666666666667,1100,40.708333333333336,1200,38C1300,35.291666666666664,1340,-16,1440,-16C1540,-16,1580,35.291666666666664,1680,38C1780,40.708333333333336,1820,-1.9583333333333333,1920,-3C2020,-4.041666666666667,2060,36.333333333333336,2160,33C2260,29.666666666666668,2297.9166666666665,-95.45833333333333,2400,-19C2502.0833333333335,57.45833333333333,3254.1666666666665,208.54166666666669,2650,400C2045.8333333333335,591.4583333333333,156.25,795.8333333333334,-500,900" transform="matrix(1,0,0,1,0,210)" opacity="0.81"></path><path d="M-10,10C42.08333333333333,16.458333333333336,137.91666666666666,46.208333333333336,240,41C342.08333333333337,35.791666666666664,380,-15.416666666666666,480,-15C580,-14.583333333333334,620,40.5,720,43C820,45.5,860,-1.9583333333333333,960,-3C1060,-4.041666666666667,1100,40.708333333333336,1200,38C1300,35.291666666666664,1340,-16,1440,-16C1540,-16,1580,35.291666666666664,1680,38C1780,40.708333333333336,1820,-1.9583333333333333,1920,-3C2020,-4.041666666666667,2060,36.333333333333336,2160,33C2260,29.666666666666668,2297.9166666666665,-95.45833333333333,2400,-19C2502.0833333333335,57.45833333333333,3254.1666666666665,208.54166666666669,2650,400C2045.8333333333335,591.4583333333333,156.25,795.8333333333334,-500,900" transform="matrix(1,0,0,1,0,252)" opacity="1.00"></path></g></svg>